<?xml version="1.0" encoding="utf-8"?><svg viewBox="0 0 800 800" xmlns="http://www.w3.org/2000/svg" xmlns:xlink="http://www.w3.org/1999/xlink"><style>:root>svg{display:none}:root>svg:target{display:block}</style><svg viewBox="-143 145 512 512" xml:space="preserve" id="facebook" xmlns="http://www.w3.org/2000/svg"><path d="M329 145h-432c-22.1 0-40 17.9-40 40v432c0 22.1 17.9 40 40 40h432c22.1 0 40-17.9 40-40V185c0-22.1-17.9-40-40-40zm10 472c0 5.5-4.5 10-10 10h-432c-5.5 0-10-4.5-10-10V185c0-5.5 4.5-10 10-10h432c5.5 0 10 4.5 10 10v432z"/><path d="M146.8 313.7c10.3 0 21.3 3.2 21.3 3.2l6.6-39.2s-14-4.8-47.4-4.8c-20.5 0-32.4 7.8-41.1 19.3-8.2 10.9-8.5 28.4-8.5 39.7v25.7H51.2v38.3h26.5v133h49.6v-133h39.3l2.9-38.3h-42.2v-29.9c0-10.3 9.2-14 19.5-14z"/></svg><svg viewBox="-143 145 512 512" xml:space="preserve" id="instagram" xmlns="http://www.w3.org/2000/svg"><path d="M329 145h-432c-22.1 0-40 17.9-40 40v432c0 22.1 17.9 40 40 40h432c22.1 0 40-17.9 40-40V185c0-22.1-17.9-40-40-40zm10 472c0 5.5-4.5 10-10 10h-432c-5.5 0-10-4.5-10-10V185c0-5.5 4.5-10 10-10h432c5.5 0 10 4.5 10 10v432z"/><path d="M191.6 273h-157c-27.3 0-49.5 22.2-49.5 49.5v157.1c0 27.3 22.2 49.5 49.5 49.5h157c27.3 0 49.5-22.2 49.5-49.5V322.4c-.1-27.2-22.3-49.4-49.5-49.4zm14.2 29.5h5.7v43.4l-43.3.1-.1-43.4 37.7-.1zM76.5 374.7c8.2-11.3 21.5-18.8 36.5-18.8s28.3 7.4 36.5 18.8c5.4 7.4 8.5 16.5 8.5 26.3 0 24.8-20.2 45.1-45.1 45.1C88 446.1 68 425.8 68 401c0-9.8 3.2-18.9 8.5-26.3zm139.6 104.8c0 13.5-11 24.5-24.5 24.5h-157c-13.5 0-24.5-11-24.5-24.5V374.7h38.2c-3.3 8.1-5.2 17-5.2 26.3 0 38.6 31.4 70 70 70s70-31.4 70-70c0-9.3-1.9-18.2-5.2-26.3h38.2v104.8z"/></svg><svg viewBox="-143 145 512 512" xml:space="preserve" id="linkedin" xmlns="http://www.w3.org/2000/svg"><path d="M329 145h-432c-22.1 0-40 17.9-40 40v432c0 22.1 17.9 40 40 40h432c22.1 0 40-17.9 40-40V185c0-22.1-17.9-40-40-40zm10 472c0 5.5-4.5 10-10 10h-432c-5.5 0-10-4.5-10-10V185c0-5.5 4.5-10 10-10h432c5.5 0 10 4.5 10 10v432z"/><path d="M-8.5 348.4h49.9v159.7H-8.5zM177.7 346.9c-28.6 0-46.5 15.6-49.8 26.6v-25.1H71.8c.7 13.3 0 159.7 0 159.7h56.1v-86.3c0-4.9-.2-9.7 1.2-13.1 3.8-9.6 12.1-19.6 27-19.6 19.5 0 28.3 14.8 28.3 36.4v82.6H241v-88.8c0-49.4-27.8-72.4-63.3-72.4zM15.4 273c-18.4 0-30.5 11.9-30.5 27.7 0 15.5 11.7 27.7 29.8 27.7h.4c18.8 0 30.5-12.3 30.4-27.7-.4-15.8-11.7-27.7-30.1-27.7z"/></svg><svg fill="none" viewBox="0 0 41 16" id="slider-arrow" xmlns="http://www.w3.org/2000/svg"><path d="M.293 7.293a1 1 0 0 0 0 1.414l6.364 6.364a1 1 0 0 0 1.414-1.414L2.414 8l5.657-5.657A1 1 0 0 0 6.657.93L.293 7.293ZM41 7H1v2h40V7Z" fill="#000"/></svg><svg viewBox="-143 145 512 512" xml:space="preserve" id="youtube" xmlns="http://www.w3.org/2000/svg"><path d="M329 145h-432c-22.1 0-40 17.9-40 40v432c0 22.1 17.9 40 40 40h432c22.1 0 40-17.9 40-40V185c0-22.1-17.9-40-40-40zm10 472c0 5.5-4.5 10-10 10h-432c-5.5 0-10-4.5-10-10V185c0-5.5 4.5-10 10-10h432c5.5 0 10 4.5 10 10v432z"/><path d="M196.9 311.2H29.1s-44.1 0-44.1 44.1v91.5s0 44.1 44.1 44.1h167.8s44.1 0 44.1-44.1v-91.5s0-44.1-44.1-44.1zm-118 139.1v-98.5l83.8 49.3-83.8 49.2z"/></svg></svg>